<mxfile host="Electron" modified="2023-08-18T11:47:01.839Z" agent="Mozilla/5.0 (Windows NT 10.0; Win64; x64) AppleWebKit/537.36 (KHTML, like Gecko) draw.io/21.4.0 Chrome/112.0.5615.204 Electron/24.5.1 Safari/537.36" etag="4iwgOz7GDBjegdnS80rl" version="21.4.0" type="device">
  <diagram name="Page-1" id="q3y7qjOo4dIHrKbCqZXb">
    <mxGraphModel dx="1276" dy="606" grid="1" gridSize="10" guides="1" tooltips="1" connect="1" arrows="1" fold="1" page="1" pageScale="1" pageWidth="827" pageHeight="1169" math="0" shadow="0">
      <root>
        <mxCell id="0" />
        <mxCell id="1" parent="0" />
        <mxCell id="yW_GI9K4VanhsC9OQ_mK-2" value="" style="endArrow=classic;html=1;rounded=0;" parent="1" edge="1">
          <mxGeometry width="50" height="50" relative="1" as="geometry">
            <mxPoint x="408" y="170" as="sourcePoint" />
            <mxPoint x="408" y="203" as="targetPoint" />
          </mxGeometry>
        </mxCell>
        <mxCell id="yW_GI9K4VanhsC9OQ_mK-3" value="Has receivable" style="html=1;whiteSpace=wrap;aspect=fixed;shape=isoRectangle;" parent="1" vertex="1">
          <mxGeometry x="333" y="201" width="150" height="90" as="geometry" />
        </mxCell>
        <mxCell id="yW_GI9K4VanhsC9OQ_mK-4" value="Is billable" style="html=1;whiteSpace=wrap;aspect=fixed;shape=isoRectangle;" parent="1" vertex="1">
          <mxGeometry x="333" y="320" width="150" height="90" as="geometry" />
        </mxCell>
        <mxCell id="yW_GI9K4VanhsC9OQ_mK-6" value="&lt;font style=&quot;font-size: 18px;&quot;&gt;&lt;b&gt;Sale Entry&lt;/b&gt;&lt;br&gt;[bill]&amp;nbsp;&lt;/font&gt;" style="text;html=1;strokeColor=none;fillColor=none;align=left;verticalAlign=middle;whiteSpace=wrap;rounded=0;" parent="1" vertex="1">
          <mxGeometry x="40" y="40" width="110" height="40" as="geometry" />
        </mxCell>
        <mxCell id="yW_GI9K4VanhsC9OQ_mK-7" value="No" style="text;html=1;strokeColor=none;fillColor=none;align=center;verticalAlign=middle;whiteSpace=wrap;rounded=0;" parent="1" vertex="1">
          <mxGeometry x="398" y="291" width="60" height="30" as="geometry" />
        </mxCell>
        <mxCell id="yW_GI9K4VanhsC9OQ_mK-9" value="" style="endArrow=classic;html=1;rounded=0;entryX=0.503;entryY=0.033;entryDx=0;entryDy=0;entryPerimeter=0;" parent="1" edge="1">
          <mxGeometry width="50" height="50" relative="1" as="geometry">
            <mxPoint x="408.2597152751059" y="289" as="sourcePoint" />
            <mxPoint x="408.45000000000005" y="321.97" as="targetPoint" />
          </mxGeometry>
        </mxCell>
        <mxCell id="yW_GI9K4VanhsC9OQ_mK-10" value="" style="endArrow=classic;html=1;rounded=0;entryX=0.503;entryY=0.033;entryDx=0;entryDy=0;entryPerimeter=0;" parent="1" edge="1">
          <mxGeometry width="50" height="50" relative="1" as="geometry">
            <mxPoint x="407.76" y="409" as="sourcePoint" />
            <mxPoint x="407.76" y="442" as="targetPoint" />
          </mxGeometry>
        </mxCell>
        <mxCell id="yW_GI9K4VanhsC9OQ_mK-11" value="yes" style="text;html=1;strokeColor=none;fillColor=none;align=center;verticalAlign=middle;whiteSpace=wrap;rounded=0;" parent="1" vertex="1">
          <mxGeometry x="398" y="410" width="60" height="30" as="geometry" />
        </mxCell>
        <mxCell id="yW_GI9K4VanhsC9OQ_mK-15" value="" style="endArrow=classic;html=1;rounded=0;entryX=0.494;entryY=-0.029;entryDx=0;entryDy=0;entryPerimeter=0;exitX=0.5;exitY=1;exitDx=0;exitDy=0;" parent="1" source="nxRgrToFXUSSM3yPUigm-3" target="nxRgrToFXUSSM3yPUigm-2" edge="1">
          <mxGeometry width="50" height="50" relative="1" as="geometry">
            <mxPoint x="407.76" y="512" as="sourcePoint" />
            <mxPoint x="407.76" y="545" as="targetPoint" />
          </mxGeometry>
        </mxCell>
        <mxCell id="yW_GI9K4VanhsC9OQ_mK-16" value="" style="endArrow=classic;html=1;rounded=0;exitX=0.999;exitY=0.5;exitDx=0;exitDy=0;exitPerimeter=0;edgeStyle=orthogonalEdgeStyle;" parent="1" source="yW_GI9K4VanhsC9OQ_mK-3" edge="1">
          <mxGeometry width="50" height="50" relative="1" as="geometry">
            <mxPoint x="478.19999999999993" y="246.36" as="sourcePoint" />
            <mxPoint x="407" y="530" as="targetPoint" />
            <Array as="points">
              <mxPoint x="517" y="246" />
              <mxPoint x="517" y="530" />
            </Array>
          </mxGeometry>
        </mxCell>
        <mxCell id="yW_GI9K4VanhsC9OQ_mK-17" value="Yes" style="text;html=1;strokeColor=none;fillColor=none;align=center;verticalAlign=middle;whiteSpace=wrap;rounded=0;" parent="1" vertex="1">
          <mxGeometry x="467" y="190" width="60" height="30" as="geometry" />
        </mxCell>
        <mxCell id="yW_GI9K4VanhsC9OQ_mK-18" value="" style="endArrow=classic;html=1;rounded=0;exitX=0.004;exitY=0.498;exitDx=0;exitDy=0;exitPerimeter=0;edgeStyle=orthogonalEdgeStyle;" parent="1" source="yW_GI9K4VanhsC9OQ_mK-4" edge="1">
          <mxGeometry width="50" height="50" relative="1" as="geometry">
            <mxPoint x="331.04999999999995" y="365.09000000000003" as="sourcePoint" />
            <mxPoint x="407" y="530" as="targetPoint" />
            <Array as="points">
              <mxPoint x="280" y="365" />
              <mxPoint x="280" y="530" />
            </Array>
          </mxGeometry>
        </mxCell>
        <mxCell id="yW_GI9K4VanhsC9OQ_mK-19" value="No" style="text;html=1;strokeColor=none;fillColor=none;align=center;verticalAlign=middle;whiteSpace=wrap;rounded=0;" parent="1" vertex="1">
          <mxGeometry x="280" y="340" width="60" height="30" as="geometry" />
        </mxCell>
        <mxCell id="nxRgrToFXUSSM3yPUigm-1" value="" style="ellipse;fillColor=strokeColor;html=1;" parent="1" vertex="1">
          <mxGeometry x="392" y="140" width="30" height="30" as="geometry" />
        </mxCell>
        <mxCell id="nxRgrToFXUSSM3yPUigm-2" value="" style="ellipse;html=1;shape=endState;fillColor=strokeColor;" parent="1" vertex="1">
          <mxGeometry x="392" y="546" width="30" height="30" as="geometry" />
        </mxCell>
        <mxCell id="nxRgrToFXUSSM3yPUigm-3" value="Create &lt;br&gt;receivable" style="rounded=1;whiteSpace=wrap;html=1;" parent="1" vertex="1">
          <mxGeometry x="347" y="442" width="120" height="60" as="geometry" />
        </mxCell>
      </root>
    </mxGraphModel>
  </diagram>
</mxfile>
